HIERARCHY
ROOT Hips
{
	OFFSET -0.001795 -0.223333 0.028219
	CHANNELS 6 Xposition Yposition Zposition Zrotation Yrotation Xrotation 
	JOINT LeftUpLeg
	{
		OFFSET 0.069520 -0.091406 -0.006815
		CHANNELS 3 Zrotation Yrotation Xrotation
		JOINT LeftLeg
		{
			OFFSET 0.034277 -0.375199 -0.004496
			CHANNELS 3 Zrotation Yrotation Xrotation
			JOINT LeftFoot
			{
				OFFSET -0.013596 -0.397961 -0.043693
				CHANNELS 3 Zrotation Yrotation Xrotation
				JOINT LeftToe
				{
					OFFSET 0.026358 -0.055791 0.119288
					CHANNELS 3 Zrotation Yrotation Xrotation
					End Site
					{
						OFFSET 0.000000 0.000000 0.000000
					}
				}
			}
		}
	}
	JOINT RightUpLeg
	{
		OFFSET -0.067670 -0.090522 -0.004320
		CHANNELS 3 Zrotation Yrotation Xrotation
		JOINT RightLeg
		{
			OFFSET -0.038290 -0.382569 -0.008850
			CHANNELS 3 Zrotation Yrotation Xrotation
			JOINT RightFoot
			{
				OFFSET 0.015774 -0.398415 -0.042312
				CHANNELS 3 Zrotation Yrotation Xrotation
				JOINT RightToe
				{
					OFFSET -0.025372 -0.048144 0.123348
					CHANNELS 3 Zrotation Yrotation Xrotation
					End Site
					{
						OFFSET 0.000000 0.000000 0.000000
					}
				}
			}
		}
	}
	JOINT Spine
	{
		OFFSET -0.002533 0.108963 -0.026696
		CHANNELS 3 Zrotation Yrotation Xrotation
		JOINT Spine1
		{
			OFFSET 0.005487 0.135180 0.001092
			CHANNELS 3 Zrotation Yrotation Xrotation
			JOINT Spine2
			{
				OFFSET 0.001457 0.052922 0.025425
				CHANNELS 3 Zrotation Yrotation Xrotation
				JOINT Neck
				{
					OFFSET -0.002778 0.213870 -0.042857
					CHANNELS 3 Zrotation Yrotation Xrotation
					JOINT Head
					{
						OFFSET 0.005152 0.064970 0.051349
						CHANNELS 3 Zrotation Yrotation Xrotation
						End Site
						{
							OFFSET 0.000000 0.000000 0.000000
						}
					}
				}
				JOINT LeftShoulder
				{
					OFFSET 0.078845 0.121749 -0.034090
					CHANNELS 3 Zrotation Yrotation Xrotation
					JOINT LeftArm
					{
						OFFSET 0.090977 0.030469 -0.008868
						CHANNELS 3 Zrotation Yrotation Xrotation
						JOINT LeftForeArm
						{
							OFFSET 0.259612 -0.012772 -0.027456
							CHANNELS 3 Zrotation Yrotation Xrotation
							JOINT LeftHand
							{
								OFFSET 0.249234 0.008986 -0.001171
								CHANNELS 3 Zrotation Yrotation Xrotation
								End Site
								{
									OFFSET 0.000000 0.000000 0.000000
								}
							}
						}
					}
				}
				JOINT RightShoulder
				{
					OFFSET -0.081759 0.118833 -0.038615
					CHANNELS 3 Zrotation Yrotation Xrotation
					JOINT RightArm
					{
						OFFSET -0.096012 0.032551 -0.009143
						CHANNELS 3 Zrotation Yrotation Xrotation
						JOINT RightForeArm
						{
							OFFSET -0.253742 -0.013329 -0.021401
							CHANNELS 3 Zrotation Yrotation Xrotation
							JOINT RightHand
							{
								OFFSET -0.255298 0.007772 -0.005559
								CHANNELS 3 Zrotation Yrotation Xrotation
								End Site
								{
									OFFSET 0.000000 0.000000 0.000000
								}
							}
						}
					}
				}
			}
		}
	}
}
MOTION
Frames: 14
Frame Time: 0.050000
0.000000 0.970215 0.000000 -2.860926 -25.197099 5.700219 5.483538 0.102334 -2.087586 1.796420 -0.175192 -2.091823 6.982168 13.043470 17.163891 0.000000 0.000000 0.000000 -2.888025 0.747660 -7.182916 3.566325 -0.100259 2.090438 -0.242546 -8.389138 11.641147 0.000000 0.000000 0.000000 5.844658 -0.160538 0.684924 -8.673067 2.314655 -25.034357 -4.746843 13.583459 21.112276 9.699489 -4.303352 -24.326235 0.000000 0.000000 0.000000 1.984320 -17.042640 5.735884 -48.076962 -51.207187 15.242470 107.760661 -16.190822 -14.807581 0.000000 0.000000 0.000000 -3.368814 11.206749 3.650504 86.031614 76.083326 60.531082 -99.824084 56.426434 -58.120333 0.000000 0.000000 0.000000 
-0.000261 0.966717 0.000953 -3.045157 -26.806079 6.548449 6.590075 0.193613 -2.463604 0.291172 0.037932 -2.632631 7.318159 13.422311 16.186781 0.000000 0.000000 0.000000 -2.459537 0.858004 -8.388501 2.410032 -0.024594 1.999680 -1.157742 -10.582258 12.486913 0.000000 0.000000 0.000000 5.825115 -0.061566 -0.380612 -8.441870 2.239867 -26.184964 -5.065313 14.990429 21.735505 10.441653 -4.180845 -27.591549 0.000000 0.000000 0.000000 4.239015 -15.753805 4.986557 -49.674894 -51.833835 16.296328 109.177488 -11.046861 -8.391397 0.000000 0.000000 0.000000 -5.182430 12.861894 4.039726 99.347825 78.572367 76.015414 -98.926583 54.241234 -54.846306 0.000000 0.000000 0.000000 
-0.000099 0.964747 0.001850 -2.911774 -25.302156 6.244339 6.715799 0.145628 -3.908392 -0.388354 0.080506 -0.192353 7.818471 14.431022 15.934216 0.000000 0.000000 0.000000 -1.795059 0.721493 -7.227587 0.887947 0.072040 2.454659 -0.778922 -9.124669 11.123611 0.000000 0.000000 0.000000 5.723095 -0.162816 0.676748 -9.870591 2.615981 -27.503876 -4.359205 12.780135 22.161151 10.075447 -4.627903 -24.923996 0.000000 0.000000 0.000000 3.236340 -13.556558 4.415888 -57.244170 -53.804779 21.422131 117.596342 -8.509461 -5.209430 0.000000 0.000000 0.000000 -5.808015 12.151987 3.863821 131.263392 78.173129 108.189937 -96.895466 53.355970 -52.121805 0.000000 0.000000 0.000000 
0.000086 0.966047 0.002826 -3.068117 -24.780528 7.289712 6.703481 0.099204 -4.980706 0.155082 0.002272 -0.511264 6.501654 12.264910 16.808404 0.000000 0.000000 0.000000 -1.336395 0.823975 -8.289615 0.779464 0.063564 2.117143 -1.849076 -11.607949 12.569487 0.000000 0.000000 0.000000 6.320517 -0.107081 -0.082148 -11.050219 2.906538 -27.633597 -5.162023 14.113554 22.059808 11.284923 -4.993930 -25.458492 0.000000 0.000000 0.000000 3.512911 -12.505354 4.057624 -60.289312 -53.430572 22.316165 122.239044 -9.448338 -8.537060 0.000000 0.000000 0.000000 -6.005855 12.010318 3.746488 151.049541 76.680805 131.105939 -94.720446 50.490186 -47.189955 0.000000 0.000000 0.000000 
0.000621 0.967484 0.004061 -2.619925 -23.044183 7.056451 5.898911 -0.031014 -6.019711 0.471355 -0.077638 1.098706 5.868810 11.539369 15.218547 0.000000 0.000000 0.000000 -1.059194 0.776967 -7.897357 -0.023460 0.119760 2.229352 -2.598548 -12.521039 12.171707 0.000000 0.000000 0.000000 5.860088 -0.135188 0.188068 -12.145342 3.202511 -26.892546 -5.164071 14.897696 22.060065 12.459193 -5.345084 -25.747672 0.000000 0.000000 0.000000 3.063261 -11.874084 3.912687 -62.696744 -52.509354 22.279828 126.974113 -10.105147 -12.020575 0.000000 0.000000 0.000000 -6.639077 11.835894 3.568986 163.550210 72.753963 146.028314 -95.501280 46.749945 -43.622465 0.000000 0.000000 0.000000 
0.001951 0.968305 0.005463 -2.480705 -21.347320 6.911270 5.631864 -0.098250 -6.705121 0.376058 -0.069739 1.337035 4.232544 9.125908 15.311083 0.000000 0.000000 0.000000 -1.244209 0.708524 -7.205742 -0.079014 0.101836 1.850584 -3.400246 -13.984748 13.060529 0.000000 0.000000 0.000000 5.883032 -0.174925 0.575717 -13.145863 3.446294 -27.448108 -4.703259 16.141383 23.169584 14.158797 -5.508261 -28.345088 0.000000 0.000000 0.000000 3.565398 -10.848409 3.580995 -64.082628 -51.581084 21.499200 128.981581 -12.647369 -18.456131 0.000000 0.000000 0.000000 -8.233375 11.725808 3.249783 172.106568 70.625750 158.992405 -94.242426 42.286480 -38.297245 0.000000 0.000000 0.000000 
0.004371 0.968825 0.006970 -2.217993 -19.743223 6.689795 4.963619 -0.191544 -6.926533 0.997760 -0.177655 1.736813 2.883615 7.114690 14.295177 0.000000 0.000000 0.000000 -1.032407 0.660267 -6.766142 -0.892689 0.161056 1.794962 -3.879018 -14.639916 13.153381 0.000000 0.000000 0.000000 5.921979 -0.217048 1.006618 -13.873123 3.658245 -26.983369 -4.474634 17.186932 23.673428 14.812484 -5.433359 -29.108525 0.000000 0.000000 0.000000 3.115886 -10.997992 3.665539 -64.930456 -50.752317 20.591299 130.202212 -13.051332 -20.817723 0.000000 0.000000 0.000000 -9.346775 12.337686 3.122650 177.505853 68.559498 168.442770 -91.403629 37.698513 -32.424144 0.000000 0.000000 0.000000 
0.007638 0.968549 0.008272 -1.869515 -18.333514 6.211171 4.187394 -0.270190 -6.741842 1.003168 -0.180356 1.724707 1.670853 5.294519 13.829431 0.000000 0.000000 0.000000 -1.486608 0.625910 -6.326067 -0.908912 0.183871 2.153478 -4.468653 -15.510816 13.384031 0.000000 0.000000 0.000000 5.950024 -0.223031 1.110079 -14.179730 3.770222 -26.519347 -3.982620 18.134476 24.384114 15.737245 -5.353872 -30.755255 0.000000 0.000000 0.000000 2.623024 -10.998104 3.681329 -63.896710 -50.765048 19.477808 128.837963 -13.837236 -22.683923 0.000000 0.000000 0.000000 -10.438120 12.877533 2.938509 179.800381 67.270703 173.560629 -87.331690 34.820777 -28.087289 0.000000 0.000000 0.000000 
0.011023 0.968539 0.008880 -1.614914 -17.250688 6.021625 3.767638 -0.324015 -6.932325 1.054546 -0.189888 1.744187 0.855642 4.159694 14.123172 0.000000 0.000000 0.000000 -1.752238 0.633312 -6.356855 -0.991283 0.213695 2.520660 -4.706533 -15.821254 13.458423 0.000000 0.000000 0.000000 5.936181 -0.246109 1.367913 -14.300421 3.838816 -26.060329 -3.895188 18.999314 24.434304 16.532772 -5.503929 -30.991061 0.000000 0.000000 0.000000 2.440281 -11.979010 3.984783 -62.571399 -51.578511 18.959579 125.942480 -13.912057 -22.443025 0.000000 0.000000 0.000000 -10.753473 14.196909 3.096804 -178.698211 67.394785 177.329904 -80.587906 31.651272 -22.893756 0.000000 0.000000 0.000000 
0.014030 0.968239 0.008511 -1.367256 -16.486314 5.625787 3.080419 -0.383273 -6.908916 1.109504 -0.198236 1.708166 0.364664 3.393900 13.650375 0.000000 0.000000 0.000000 -2.202512 0.594007 -5.838850 -1.041823 0.231525 2.727021 -4.844949 -15.914582 13.281211 0.000000 0.000000 0.000000 5.881852 -0.254438 1.516743 -14.340838 3.873447 -25.820200 -3.663269 19.067200 24.941986 17.093580 -5.517567 -32.058709 0.000000 0.000000 0.000000 2.516137 -12.443216 4.126949 -60.349641 -52.430911 18.305016 123.046799 -14.671768 -22.811272 0.000000 0.000000 0.000000 -11.278749 15.235100 3.196139 -177.588314 67.026866 179.600672 -75.558352 28.900721 -19.190299 0.000000 0.000000 0.000000 
0.016606 0.968183 0.007145 -1.169835 -16.127920 5.701510 2.995695 -0.406885 -7.149957 0.855583 -0.157178 1.585075 0.020724 2.959405 14.034845 0.000000 0.000000 0.000000 -2.475169 0.624418 -6.129446 -0.926815 0.247307 3.166780 -5.317485 -16.635089 13.230605 0.000000 0.000000 0.000000 5.481055 -0.279107 1.870487 -14.275223 3.857384 -25.786089 -3.460072 18.940203 24.701180 17.410096 -5.609646 -32.199646 0.000000 0.000000 0.000000 3.050414 -13.163995 4.348413 -58.053750 -53.034840 17.639179 119.041595 -13.969148 -20.347292 0.000000 0.000000 0.000000 -11.251750 15.967411 3.396146 -178.665439 66.503810 178.012245 -70.296513 27.363451 -16.515041 0.000000 0.000000 0.000000 
0.018838 0.968116 0.005210 -1.240209 -16.200554 5.775419 3.138039 -0.409093 -7.449532 0.540630 -0.114390 1.792000 -0.060366 2.888846 14.379197 0.000000 0.000000 0.000000 -2.549898 0.640015 -6.288285 -0.612298 0.224134 3.304913 -5.583010 -17.019655 13.014202 0.000000 0.000000 0.000000 5.378574 -0.279404 1.892556 -13.837514 3.742744 -25.763633 -3.159901 19.342656 25.090978 17.862091 -5.701262 -32.737444 0.000000 0.000000 0.000000 3.576376 -13.546241 4.464425 -55.963557 -53.465756 16.806544 115.569402 -14.390814 -19.910102 0.000000 0.000000 0.000000 -10.531962 16.759334 3.702280 176.976429 66.501705 171.119739 -64.972336 28.642150 -15.650302 0.000000 0.000000 0.000000 
0.020825 0.968156 0.003242 -1.327490 -16.326265 5.805418 3.113892 -0.411171 -7.474657 0.751158 -0.134282 1.305267 -0.201435 2.737608 14.869403 0.000000 0.000000 0.000000 -2.608918 0.631209 -6.166768 -0.245089 0.170926 3.003776 -5.690977 -17.315980 13.581516 0.000000 0.000000 0.000000 5.243132 -0.291144 2.072252 -13.565140 3.684173 -25.543849 -2.855312 19.412230 25.222528 18.130723 -5.762380 -33.111939 0.000000 0.000000 0.000000 3.828738 -14.108691 4.627723 -53.277791 -53.074296 15.407138 112.636974 -15.133040 -20.104997 0.000000 0.000000 0.000000 -9.528505 17.753178 4.174435 171.380238 66.927716 162.115163 -60.344818 31.121611 -15.500338 0.000000 0.000000 0.000000 
0.022329 0.968142 0.001872 -1.451013 -16.418953 5.868789 3.457620 -0.382447 -7.510122 0.381414 -0.077667 1.238280 -0.161095 2.816435 15.003917 0.000000 0.000000 0.000000 -2.464776 0.620061 -6.066280 -0.065040 0.136206 2.668053 -5.833329 -17.525073 13.478167 0.000000 0.000000 0.000000 5.132947 -0.267826 1.833260 -13.389877 3.650943 -25.265138 -2.629439 19.037999 25.211616 18.322620 -5.927380 -33.098476 0.000000 0.000000 0.000000 3.849972 -14.364940 4.697262 -50.854594 -52.825752 14.380692 110.069178 -16.215344 -20.613435 0.000000 0.000000 0.000000 -8.691320 18.848826 4.684013 165.128503 67.952338 152.355021 -56.663861 34.951735 -16.150944 0.000000 0.000000 0.000000 
